<svg id="svg" version="1.1" xmlns="http://www.w3.org/2000/svg" xmlns:xlink="http://www.w3.org/1999/xlink" width="400" height="225" viewBox="0, 0, 400,225"><g id="svgg"><path id="path0" d="M235.946 7.116 C 235.591 7.619,234.639 9.172,233.831 10.566 C 232.210 13.362,228.422 19.988,227.637 21.400 C 227.362 21.895,226.791 22.850,226.368 23.522 C 225.946 24.193,225.600 24.792,225.600 24.852 C 225.600 24.954,224.013 27.710,220.908 33.000 C 220.165 34.265,219.129 36.065,218.605 37.000 C 218.081 37.935,217.451 39.060,217.204 39.500 C 216.796 40.226,216.247 41.170,213.710 45.500 C 213.259 46.270,212.675 47.314,212.412 47.819 C 212.149 48.325,211.476 49.397,210.917 50.202 C 208.928 53.067,208.672 52.933,205.553 47.400 C 203.472 43.707,203.464 43.693,202.911 42.817 C 202.630 42.372,202.400 41.964,202.400 41.909 C 202.400 41.855,202.007 41.156,201.527 40.355 C 200.701 38.979,199.040 36.142,196.693 32.100 C 196.118 31.110,194.931 29.040,194.055 27.500 C 193.179 25.960,191.714 23.440,190.800 21.900 C 189.885 20.360,188.867 18.605,188.538 18.000 C 187.113 15.379,186.533 15.379,184.992 18.000 C 183.486 20.560,180.464 25.825,179.596 27.400 C 179.081 28.335,177.718 30.675,176.567 32.600 C 175.417 34.525,173.951 37.045,173.310 38.200 C 172.669 39.355,171.719 41.020,171.198 41.900 C 170.678 42.780,169.688 44.490,168.998 45.700 C 168.308 46.910,167.188 48.845,166.508 50.000 C 165.828 51.155,164.750 53.000,164.113 54.100 C 163.475 55.200,162.615 56.685,162.200 57.400 C 161.786 58.115,160.478 60.410,159.293 62.500 C 158.109 64.590,156.917 66.654,156.645 67.086 C 156.373 67.518,155.726 68.643,155.208 69.586 C 154.690 70.529,153.655 72.335,152.907 73.600 C 150.931 76.945,149.447 79.520,148.643 81.000 C 148.255 81.715,147.647 82.750,147.291 83.300 C 146.936 83.850,146.169 85.155,145.587 86.200 C 144.584 88.002,143.257 90.304,139.133 97.400 C 138.142 99.105,137.001 101.085,136.598 101.800 C 136.195 102.515,135.026 104.540,134.001 106.300 C 132.976 108.060,131.870 109.995,131.542 110.600 C 130.777 112.013,130.693 112.158,127.915 116.858 C 123.984 123.508,123.297 125.051,124.050 125.538 C 124.188 125.627,143.365 125.745,166.667 125.800 L 209.035 125.900 209.504 126.446 C 210.253 127.316,210.297 127.218,205.144 136.094 C 203.163 139.507,200.173 144.685,198.500 147.600 C 196.826 150.515,195.010 153.665,194.463 154.600 C 189.283 163.464,187.850 165.946,185.343 170.400 C 183.367 173.910,180.240 179.297,179.422 180.600 C 178.920 181.401,175.213 187.858,171.959 193.600 C 170.307 196.515,168.413 199.800,167.751 200.900 C 165.975 203.852,164.792 205.889,161.250 212.100 C 159.493 215.180,157.450 218.735,156.710 220.000 C 155.969 221.265,155.147 222.705,154.882 223.200 C 154.616 223.695,154.254 224.303,154.075 224.550 L 153.751 225.000 160.526 224.992 L 167.300 224.983 167.778 224.242 C 168.041 223.834,168.482 223.095,168.758 222.600 C 169.034 222.105,169.619 221.070,170.059 220.300 C 170.499 219.530,170.992 218.644,171.154 218.330 C 171.460 217.739,172.536 216.033,173.097 215.250 C 173.531 214.643,174.217 214.683,174.833 215.350 C 175.408 215.973,178.805 221.691,178.902 222.200 C 178.913 222.255,179.316 222.907,179.798 223.650 L 180.673 225.000 199.127 225.000 L 217.581 225.000 218.140 224.147 C 219.011 222.818,219.193 222.522,219.333 222.200 C 219.404 222.035,220.866 219.493,222.582 216.552 C 224.297 213.611,225.933 210.776,226.217 210.252 C 226.686 209.390,229.263 204.814,230.696 202.300 C 231.009 201.750,231.422 201.075,231.613 200.800 C 231.804 200.525,232.338 199.639,232.800 198.831 C 233.262 198.022,233.893 197.078,234.202 196.732 L 234.764 196.103 235.688 196.552 C 237.668 197.514,237.427 197.764,241.698 190.300 C 242.264 189.310,243.090 187.915,243.532 187.200 C 243.975 186.485,244.583 185.468,244.884 184.939 C 246.233 182.565,246.833 182.997,250.103 188.700 C 254.430 196.248,254.803 196.800,255.570 196.800 C 256.035 196.800,257.200 195.926,257.200 195.577 C 257.200 195.425,260.195 190.206,263.099 185.300 C 264.010 183.760,265.355 181.428,266.088 180.117 C 266.820 178.807,267.581 177.502,267.778 177.217 C 267.975 176.933,268.274 176.430,268.442 176.100 C 268.610 175.770,269.255 174.588,269.874 173.473 C 272.065 169.530,272.187 169.600,263.123 169.600 C 253.234 169.600,253.503 169.932,257.702 162.913 C 258.968 160.797,260.613 157.930,262.243 155.000 C 262.518 154.505,262.926 153.785,263.149 153.400 C 263.372 153.015,264.543 150.990,265.751 148.900 C 268.803 143.619,269.123 143.506,271.136 146.999 C 275.666 154.864,277.163 157.312,277.665 157.683 L 278.230 158.100 279.215 157.550 C 280.568 156.795,281.033 156.833,281.649 157.750 C 282.281 158.691,283.729 161.208,283.997 161.831 C 284.108 162.089,284.607 162.930,285.107 163.700 C 286.358 165.627,287.639 168.265,287.500 168.628 C 287.437 168.793,286.981 169.124,286.488 169.364 C 284.597 170.282,284.491 169.970,289.798 179.100 C 290.757 180.750,292.557 183.855,293.798 186.000 C 295.040 188.145,296.616 190.845,297.301 192.000 C 297.987 193.155,298.981 194.910,299.512 195.900 C 300.955 198.594,302.783 201.623,303.375 202.302 C 304.764 203.895,305.645 205.744,305.814 207.420 C 305.991 209.183,305.787 208.777,311.400 218.500 C 312.416 220.260,313.418 221.998,313.627 222.363 C 314.753 224.325,315.318 225.000,315.835 225.000 C 316.296 225.000,316.292 224.848,315.801 223.604 C 315.449 222.708,314.591 221.171,310.498 214.100 C 308.056 209.881,307.762 209.323,307.663 208.712 C 307.437 207.318,306.335 207.404,324.964 207.364 C 334.169 207.344,342.015 207.351,342.400 207.379 C 344.137 207.504,344.215 208.756,342.651 211.400 C 340.821 214.495,338.767 218.063,337.182 220.900 C 336.321 222.440,335.546 223.795,335.459 223.910 C 335.371 224.026,335.187 224.318,335.048 224.560 L 334.797 225.000 350.018 225.000 L 365.240 225.000 364.787 224.250 C 364.538 223.838,364.111 223.095,363.836 222.600 C 363.562 222.105,362.890 220.935,362.343 220.000 C 361.796 219.065,360.852 217.445,360.245 216.400 C 359.639 215.355,358.700 213.754,358.158 212.841 C 356.854 210.644,356.204 209.221,356.202 208.555 C 356.198 207.352,355.070 207.410,378.558 207.395 L 400.000 207.381 400.000 200.783 C 400.000 194.840,399.965 194.132,399.650 193.643 C 399.457 193.345,398.828 192.438,398.250 191.629 C 397.673 190.820,397.200 190.088,397.200 190.003 C 397.200 189.817,395.932 187.531,394.092 184.400 C 391.196 179.472,391.223 179.553,392.238 178.699 L 392.875 178.162 396.438 178.231 L 400.000 178.300 400.000 155.311 L 400.000 132.322 398.600 130.259 C 397.830 129.124,397.200 128.147,397.200 128.088 C 397.200 128.029,396.290 126.432,395.177 124.540 C 393.299 121.348,392.753 120.389,391.450 118.000 C 391.180 117.505,390.396 116.155,389.708 115.000 C 388.362 112.741,387.359 111.013,384.305 105.700 C 383.230 103.830,381.745 101.265,381.004 100.000 C 380.263 98.735,379.364 97.160,379.006 96.500 C 377.101 92.990,377.115 92.979,371.493 102.700 C 370.920 103.690,369.824 105.580,369.057 106.900 C 368.290 108.220,366.824 110.785,365.798 112.600 C 359.303 124.097,359.314 124.088,356.896 119.900 C 356.262 118.800,355.447 117.450,355.087 116.900 C 354.540 116.065,352.278 112.151,350.752 109.400 C 350.538 109.015,350.114 108.295,349.808 107.800 C 349.503 107.305,348.777 106.045,348.196 105.000 C 346.500 101.953,346.421 101.816,344.903 99.300 C 343.642 97.211,341.232 93.046,339.637 90.200 C 339.360 89.705,338.788 88.736,338.366 88.046 C 337.945 87.357,337.600 86.758,337.600 86.714 C 337.600 86.671,336.790 85.239,335.800 83.533 C 334.810 81.826,334.000 80.384,334.000 80.329 C 334.000 80.273,333.179 78.849,332.175 77.164 C 328.976 71.791,328.870 71.775,326.248 76.300 C 319.745 87.525,320.166 87.242,317.280 82.307 C 314.647 77.806,314.403 77.798,311.911 82.133 C 311.289 83.215,310.694 84.235,310.589 84.400 C 310.484 84.565,309.881 85.610,309.249 86.723 C 304.457 95.159,301.476 100.345,299.893 103.000 C 298.876 104.705,297.845 106.460,297.600 106.900 C 297.356 107.340,296.504 108.825,295.709 110.200 C 294.913 111.575,294.036 113.105,293.761 113.600 C 293.486 114.095,292.662 115.554,291.931 116.841 C 289.807 120.577,289.960 120.800,294.631 120.800 C 300.229 120.800,300.478 121.493,296.900 127.087 C 296.512 127.694,295.758 128.980,295.226 129.945 C 293.800 132.530,291.010 137.370,287.990 142.500 C 287.472 143.380,286.328 145.360,285.448 146.900 C 280.257 155.976,280.609 155.858,277.126 149.700 C 276.442 148.490,275.172 146.285,274.304 144.800 C 273.437 143.315,272.218 141.200,271.597 140.100 C 270.335 137.866,267.374 132.795,265.817 130.200 C 265.256 129.265,264.181 127.420,263.428 126.100 C 261.205 122.200,261.009 122.236,258.285 127.046 C 257.210 128.946,256.176 130.725,255.988 131.000 C 255.648 131.498,255.184 132.291,254.232 134.000 C 253.956 134.495,252.813 136.475,251.693 138.400 C 250.572 140.325,248.755 143.475,247.657 145.400 C 243.702 152.328,241.737 155.736,240.507 157.800 C 239.819 158.955,238.959 160.466,238.597 161.157 C 236.830 164.522,235.932 164.397,233.630 160.468 C 230.296 154.776,223.800 143.547,223.800 143.475 C 223.800 143.430,223.410 142.742,222.933 141.947 C 222.456 141.151,221.587 139.645,221.001 138.600 C 220.416 137.555,218.928 134.990,217.695 132.900 C 214.918 128.192,214.800 127.961,214.800 127.215 C 214.800 125.846,213.984 125.911,232.491 125.800 C 241.626 125.745,249.251 125.626,249.435 125.535 C 250.297 125.108,250.077 124.431,247.831 120.600 C 246.895 119.005,245.846 117.205,245.498 116.600 C 245.150 115.995,244.446 114.795,243.933 113.933 C 243.420 113.072,243.000 112.340,243.000 112.308 C 243.000 112.202,240.708 108.165,238.964 105.200 C 238.026 103.605,236.690 101.310,235.996 100.100 C 235.301 98.890,234.312 97.180,233.799 96.300 C 233.285 95.420,231.802 92.855,230.502 90.600 C 229.202 88.345,227.612 85.624,226.969 84.554 C 226.326 83.484,225.800 82.560,225.800 82.499 C 225.800 82.439,225.455 81.830,225.034 81.145 C 224.613 80.460,223.559 78.640,222.692 77.100 C 221.825 75.560,220.831 73.850,220.485 73.300 C 218.686 70.447,218.290 69.143,219.021 68.481 C 219.429 68.111,220.234 68.097,245.690 68.000 C 274.161 67.892,272.600 67.961,272.600 66.809 C 272.600 66.199,272.279 65.556,270.200 62.000 C 269.396 60.625,267.190 56.800,265.298 53.500 C 262.322 48.310,259.041 42.611,257.787 40.455 C 257.581 40.100,257.059 39.245,256.627 38.555 C 256.195 37.865,255.168 36.085,254.345 34.600 C 253.522 33.115,252.073 30.561,251.125 28.925 C 250.176 27.288,249.400 25.911,249.400 25.865 C 249.400 25.819,249.085 25.288,248.700 24.687 C 248.315 24.085,248.000 23.545,248.000 23.487 C 248.000 23.430,247.343 22.284,246.540 20.941 C 244.996 18.359,243.957 16.579,240.502 10.600 C 237.568 5.521,237.245 5.274,235.946 7.116 M37.076 7.432 C 36.655 7.637,35.967 8.699,35.713 9.540 C 35.405 10.555,37.710 11.291,39.013 10.593 C 39.783 10.181,39.360 8.469,38.277 7.618 C 37.682 7.150,37.665 7.147,37.076 7.432 M303.571 9.800 C 303.154 10.049,300.119 15.142,296.004 22.500 C 295.266 23.820,294.254 25.575,293.756 26.400 C 293.258 27.225,292.286 28.890,291.596 30.100 C 290.906 31.310,289.378 33.920,288.201 35.900 C 287.023 37.880,285.673 40.220,285.199 41.100 C 284.725 41.980,284.053 43.150,283.705 43.700 C 283.357 44.250,282.769 45.285,282.397 46.000 C 281.710 47.323,281.290 48.050,277.947 53.700 C 274.672 59.234,274.362 59.962,275.000 60.600 C 275.502 61.102,332.012 61.240,333.000 60.742 C 334.058 60.209,333.329 58.542,328.565 50.600 C 327.740 49.225,326.541 47.155,325.901 46.000 C 325.261 44.845,324.219 43.045,323.587 42.000 C 322.382 40.008,320.802 37.262,319.503 34.900 C 318.815 33.650,318.089 32.405,314.606 26.500 C 314.087 25.620,313.389 24.405,313.055 23.800 C 312.722 23.195,311.839 21.665,311.094 20.400 C 309.538 17.758,307.635 14.424,306.726 12.743 C 305.341 10.185,304.399 9.306,303.571 9.800 M209.942 55.187 C 210.139 55.399,210.476 55.917,210.691 56.337 C 210.907 56.756,211.369 57.550,211.718 58.100 C 212.068 58.650,212.709 59.730,213.143 60.500 C 213.577 61.270,214.451 62.796,215.085 63.890 C 217.428 67.934,217.359 67.978,208.640 67.991 C 201.716 68.002,201.102 67.816,202.069 66.000 C 203.133 64.000,204.084 62.269,204.212 62.100 C 204.295 61.990,205.051 60.692,205.892 59.216 C 208.461 54.707,209.001 54.170,209.942 55.187 M33.337 73.161 C 33.042 73.469,32.800 73.782,32.800 73.855 C 32.800 73.928,32.405 74.598,31.923 75.344 C 31.441 76.090,30.466 77.735,29.757 79.000 C 27.909 82.299,25.315 86.825,24.143 88.800 C 22.439 91.669,18.381 98.637,17.737 99.800 C 17.030 101.075,14.385 105.679,9.176 114.700 C 7.143 118.220,4.866 122.180,4.115 123.500 C 3.364 124.820,2.131 126.821,1.375 127.946 L -0.000 129.993 -0.000 135.246 L -0.000 140.500 15.659 140.500 C 35.254 140.500,33.937 140.041,30.601 145.712 C 29.885 146.928,28.863 148.683,28.329 149.612 C 25.025 155.356,24.302 156.622,23.707 157.700 C 22.619 159.675,17.971 167.719,16.368 170.400 C 15.128 172.475,12.781 176.541,10.434 180.678 C 10.177 181.130,9.625 182.085,9.206 182.800 C 8.787 183.515,6.984 186.620,5.200 189.700 C 3.415 192.780,1.711 195.615,1.413 196.000 C -0.013 197.844,0.000 197.792,-0.000 201.924 L -0.000 205.700 65.850 205.655 C 102.067 205.631,131.997 205.558,132.359 205.494 C 133.859 205.230,133.632 204.222,131.135 200.057 C 128.268 195.273,125.196 189.980,124.589 188.779 C 123.969 187.549,121.880 183.945,120.835 182.300 C 120.275 181.419,118.897 179.028,116.742 175.200 C 115.968 173.825,114.330 170.990,113.102 168.900 C 111.874 166.810,110.476 164.380,109.995 163.500 C 109.514 162.620,108.223 160.415,107.126 158.600 C 106.029 156.785,104.464 153.998,103.648 152.407 C 102.832 150.815,101.917 149.195,101.613 148.807 C 101.309 148.418,99.728 145.760,98.100 142.900 C 96.472 140.040,94.838 137.226,94.470 136.646 C 94.101 136.066,93.800 135.560,93.800 135.522 C 93.800 135.483,92.888 133.887,91.774 131.975 C 90.659 130.064,89.552 128.140,89.312 127.700 C 89.073 127.260,88.200 125.730,87.371 124.300 C 86.543 122.870,85.433 120.935,84.905 120.000 C 84.377 119.065,83.658 117.850,83.307 117.300 C 82.766 116.451,80.354 112.276,78.801 109.500 C 78.555 109.060,77.970 108.067,77.502 107.294 C 77.033 106.521,76.332 105.257,75.943 104.486 C 75.555 103.715,74.677 102.187,73.993 101.092 C 72.781 99.150,68.735 92.201,67.536 90.000 C 65.395 86.071,64.825 86.168,62.231 90.900 C 60.488 94.080,55.232 103.033,54.879 103.423 C 53.977 104.420,53.027 103.853,51.657 101.500 C 51.208 100.730,50.256 99.110,49.540 97.900 C 48.824 96.690,47.796 94.890,47.256 93.900 C 46.125 91.829,41.895 84.492,40.780 82.669 C 40.366 81.992,39.829 81.047,39.587 80.569 C 39.345 80.091,38.855 79.250,38.498 78.700 C 38.141 78.150,37.554 77.160,37.194 76.500 C 35.040 72.549,34.430 72.021,33.337 73.161 M320.840 88.750 C 321.123 89.053,322.188 90.785,323.207 92.600 C 325.099 95.974,326.624 98.614,328.114 101.100 C 328.576 101.870,329.494 103.445,330.153 104.600 C 330.813 105.755,331.533 107.015,331.754 107.400 C 331.974 107.785,332.644 108.955,333.243 110.000 C 333.841 111.045,335.036 113.115,335.898 114.600 C 338.653 119.347,338.907 120.105,337.891 120.568 C 337.255 120.858,302.897 120.903,302.140 120.615 C 300.972 120.171,301.511 118.504,304.246 114.100 C 304.872 113.092,306.181 110.814,306.777 109.695 C 306.955 109.362,307.739 108.012,308.520 106.695 C 309.301 105.378,311.181 102.140,312.698 99.500 C 319.872 87.013,319.578 87.402,320.840 88.750 M54.386 106.792 C 54.753 106.989,55.661 108.444,57.199 111.300 C 57.673 112.180,58.174 113.035,58.312 113.200 C 58.450 113.365,58.782 113.905,59.048 114.400 C 59.315 114.895,60.822 117.505,62.399 120.200 C 65.117 124.849,66.126 126.596,67.499 129.036 C 68.431 130.692,69.151 131.948,70.290 133.900 C 73.303 139.067,73.526 139.672,72.598 140.142 C 71.919 140.486,36.078 140.518,35.326 140.176 C 34.244 139.683,34.389 139.225,37.082 134.620 C 38.137 132.817,39.000 131.311,39.000 131.274 C 39.000 131.238,39.301 130.734,39.668 130.154 C 40.035 129.574,40.605 128.605,40.935 128.000 C 41.637 126.711,43.023 124.268,44.565 121.600 C 45.169 120.555,46.807 117.720,48.206 115.300 C 49.604 112.880,51.244 110.045,51.849 109.000 C 53.060 106.909,53.648 106.397,54.386 106.792 M113.692 116.992 C 109.410 123.611,109.491 124.000,115.164 124.000 C 120.694 124.000,120.810 123.797,118.018 119.000 C 115.633 114.904,115.179 114.693,113.692 116.992 M360.040 125.750 C 360.207 125.942,361.069 127.360,361.956 128.900 C 362.843 130.440,364.004 132.416,364.535 133.290 C 365.066 134.165,365.815 135.443,366.200 136.131 C 366.585 136.820,368.555 140.244,370.578 143.741 C 372.601 147.239,374.861 151.180,375.600 152.500 C 376.340 153.820,377.812 156.365,378.872 158.155 C 379.932 159.945,380.800 161.462,380.800 161.524 C 380.800 161.587,380.970 161.877,381.177 162.169 C 381.384 162.461,381.780 163.105,382.056 163.600 C 383.176 165.609,387.998 173.979,388.663 175.069 C 389.567 176.549,389.755 177.331,389.314 177.772 C 388.978 178.107,332.310 178.417,330.051 178.096 C 328.443 177.868,328.527 177.158,330.564 173.737 C 331.099 172.836,331.760 171.695,332.033 171.200 C 333.061 169.330,336.725 162.963,339.112 158.900 C 339.758 157.800,340.433 156.630,340.613 156.300 C 340.792 155.970,342.043 153.810,343.393 151.500 C 344.742 149.190,346.137 146.760,346.493 146.100 C 347.094 144.985,348.165 143.096,348.591 142.400 C 349.440 141.011,350.778 138.703,351.257 137.800 C 351.578 137.195,352.086 136.295,352.386 135.800 C 352.685 135.305,353.455 134.000,354.096 132.900 C 354.737 131.800,355.460 130.585,355.703 130.200 C 355.946 129.815,356.573 128.735,357.098 127.800 C 358.290 125.675,358.531 125.400,359.200 125.400 C 359.496 125.400,359.874 125.558,360.040 125.750 M106.737 143.250 C 106.007 143.988,103.957 147.789,103.927 148.459 C 103.885 149.423,104.443 149.594,107.650 149.597 C 111.698 149.601,111.816 149.427,110.076 146.005 C 108.557 143.019,107.681 142.295,106.737 143.250 M236.712 166.753 C 237.078 167.008,237.600 167.875,237.600 168.230 C 237.600 169.093,235.961 169.554,235.109 168.931 C 234.196 168.264,235.782 166.108,236.712 166.753 M251.689 169.596 C 253.230 170.182,252.822 171.226,247.722 179.753 C 246.507 181.785,245.541 181.277,243.439 177.500 C 243.010 176.730,242.096 175.117,241.406 173.916 C 239.696 170.936,239.608 169.935,241.024 169.600 C 242.010 169.368,251.079 169.364,251.689 169.596 M351.053 200.581 C 351.934 201.627,354.067 205.628,354.067 206.233 C 354.067 207.228,353.842 207.296,350.341 207.354 C 345.216 207.440,344.996 207.079,347.557 202.800 C 349.388 199.742,350.013 199.345,351.053 200.581 M262.350 207.816 C 262.131 207.943,262.001 208.260,262.001 208.660 C 262.003 209.282,262.210 209.684,264.803 214.100 C 266.787 217.478,270.073 223.318,270.571 224.352 L 270.885 225.004 280.575 224.952 L 290.264 224.900 290.734 224.100 C 290.992 223.660,291.440 222.850,291.730 222.300 C 292.409 221.011,295.063 216.361,296.294 214.300 C 299.006 209.763,299.515 208.443,298.755 207.911 C 298.214 207.532,262.995 207.440,262.350 207.816 " stroke="none" fill="#f2d3d3" fill-rule="evenodd"></path><path id="path1" d="M208.593 55.056 C 208.117 55.434,207.548 56.309,205.892 59.216 C 205.051 60.692,204.295 61.990,204.212 62.100 C 204.084 62.269,203.133 64.000,202.069 66.000 C 201.102 67.816,201.716 68.002,208.640 67.991 C 217.359 67.978,217.428 67.934,215.085 63.890 C 214.451 62.796,213.577 61.270,213.143 60.500 C 212.709 59.730,212.068 58.650,211.718 58.100 C 211.369 57.550,210.907 56.756,210.691 56.337 C 209.951 54.892,209.300 54.495,208.593 55.056 M319.237 88.550 C 318.827 88.902,317.779 90.657,312.698 99.500 C 311.181 102.140,309.301 105.378,308.520 106.695 C 307.739 108.012,306.955 109.362,306.777 109.695 C 306.181 110.814,304.872 113.092,304.246 114.100 C 301.511 118.504,300.972 120.171,302.140 120.615 C 302.897 120.903,337.255 120.858,337.891 120.568 C 338.907 120.105,338.653 119.347,335.898 114.600 C 335.036 113.115,333.841 111.045,333.243 110.000 C 332.644 108.955,331.974 107.785,331.754 107.400 C 331.533 107.015,330.813 105.755,330.153 104.600 C 329.494 103.445,328.576 101.870,328.114 101.100 C 326.624 98.614,325.099 95.974,323.207 92.600 C 320.754 88.228,320.232 87.696,319.237 88.550 M53.425 106.853 C 53.163 106.989,52.454 107.955,51.849 109.000 C 51.244 110.045,49.604 112.880,48.206 115.300 C 46.807 117.720,45.169 120.555,44.565 121.600 C 43.023 124.268,41.637 126.711,40.935 128.000 C 40.605 128.605,40.035 129.574,39.668 130.154 C 39.301 130.734,39.000 131.238,39.000 131.274 C 39.000 131.311,38.137 132.817,37.082 134.620 C 34.389 139.225,34.244 139.683,35.326 140.176 C 36.078 140.518,71.919 140.486,72.598 140.142 C 73.526 139.672,73.303 139.067,70.290 133.900 C 69.151 131.948,68.431 130.692,67.499 129.036 C 66.126 126.596,65.117 124.849,62.399 120.200 C 60.822 117.505,59.315 114.895,59.048 114.400 C 58.782 113.905,58.450 113.365,58.312 113.200 C 58.174 113.035,57.673 112.180,57.199 111.300 C 54.747 106.746,54.405 106.343,53.425 106.853 M358.357 125.750 C 358.189 125.942,357.622 126.865,357.098 127.800 C 356.573 128.735,355.946 129.815,355.703 130.200 C 355.460 130.585,354.737 131.800,354.096 132.900 C 353.455 134.000,352.685 135.305,352.386 135.800 C 352.086 136.295,351.578 137.195,351.257 137.800 C 350.778 138.703,349.440 141.011,348.591 142.400 C 348.165 143.096,347.094 144.985,346.493 146.100 C 346.137 146.760,344.742 149.190,343.393 151.500 C 342.043 153.810,340.792 155.970,340.613 156.300 C 340.433 156.630,339.758 157.800,339.112 158.900 C 336.725 162.963,333.061 169.330,332.033 171.200 C 331.760 171.695,331.099 172.836,330.564 173.737 C 328.527 177.158,328.443 177.868,330.051 178.096 C 332.310 178.417,388.978 178.107,389.314 177.772 C 389.755 177.331,389.567 176.549,388.663 175.069 C 387.998 173.979,383.176 165.609,382.056 163.600 C 381.780 163.105,381.384 162.461,381.177 162.169 C 380.970 161.877,380.800 161.587,380.800 161.524 C 380.800 161.462,379.932 159.945,378.872 158.155 C 377.812 156.365,376.340 153.820,375.600 152.500 C 374.861 151.180,372.601 147.239,370.578 143.741 C 368.555 140.244,366.585 136.820,366.200 136.131 C 365.815 135.443,365.066 134.165,364.535 133.290 C 364.004 132.416,362.843 130.440,361.956 128.900 C 360.047 125.587,359.900 125.400,359.200 125.400 C 358.904 125.400,358.525 125.558,358.357 125.750 M268.231 144.950 C 268.003 145.143,266.858 146.965,265.686 149.000 C 264.514 151.035,263.373 153.015,263.149 153.400 C 262.926 153.785,262.518 154.505,262.243 155.000 C 260.613 157.930,258.968 160.797,257.702 162.913 C 253.503 169.932,253.234 169.600,263.123 169.600 C 272.187 169.600,272.065 169.530,269.874 173.473 C 269.255 174.588,268.610 175.770,268.442 176.100 C 268.274 176.430,267.975 176.933,267.778 177.217 C 267.581 177.502,266.820 178.807,266.088 180.117 C 265.355 181.428,264.010 183.760,263.099 185.300 C 260.369 189.913,257.200 195.421,257.200 195.554 C 257.200 195.919,256.065 196.800,255.594 196.800 C 254.800 196.800,254.455 196.292,250.103 188.700 C 246.828 182.988,246.234 182.562,244.875 184.954 C 244.579 185.474,243.975 186.485,243.532 187.200 C 243.090 187.915,242.264 189.310,241.698 190.300 C 237.427 197.764,237.668 197.514,235.688 196.552 L 234.764 196.103 234.202 196.732 C 233.893 197.078,233.262 198.022,232.800 198.831 C 232.338 199.639,231.804 200.525,231.613 200.800 C 231.422 201.075,231.009 201.750,230.696 202.300 C 229.263 204.814,226.686 209.390,226.217 210.252 C 225.705 211.195,219.556 221.823,219.188 222.400 C 219.083 222.565,218.938 222.835,218.865 223.000 C 218.792 223.165,218.473 223.683,218.157 224.150 L 217.581 225.000 244.204 225.000 L 270.827 225.000 270.689 224.550 C 270.613 224.303,270.468 223.996,270.368 223.870 C 270.267 223.743,269.798 222.933,269.327 222.070 C 268.201 220.009,266.125 216.350,264.803 214.100 C 262.207 209.678,262.003 209.283,262.001 208.657 C 261.999 207.570,261.464 207.600,280.542 207.600 C 299.696 207.600,299.200 207.573,299.200 208.603 C 299.200 209.052,297.736 211.896,296.062 214.700 C 295.007 216.468,293.017 219.962,291.563 222.600 C 291.290 223.095,290.873 223.838,290.637 224.250 L 290.207 225.000 302.838 225.000 L 315.470 225.000 315.072 224.550 C 314.666 224.092,314.306 223.546,313.627 222.363 C 313.418 221.998,312.416 220.260,311.400 218.500 C 305.787 208.777,305.991 209.183,305.814 207.420 C 305.645 205.744,304.764 203.895,303.375 202.302 C 302.783 201.623,300.955 198.594,299.512 195.900 C 298.981 194.910,297.987 193.155,297.301 192.000 C 296.616 190.845,295.040 188.145,293.798 186.000 C 292.557 183.855,290.757 180.750,289.798 179.100 C 284.491 169.970,284.597 170.282,286.488 169.364 C 286.981 169.124,287.437 168.793,287.500 168.628 C 287.639 168.265,286.358 165.627,285.107 163.700 C 284.607 162.930,284.108 162.089,283.997 161.831 C 283.729 161.208,282.281 158.691,281.649 157.750 C 281.033 156.833,280.568 156.795,279.215 157.550 L 278.230 158.100 277.665 157.680 C 277.050 157.223,276.617 156.528,272.764 149.800 C 270.198 145.320,269.677 144.600,269.000 144.600 C 268.804 144.600,268.458 144.758,268.231 144.950 M235.410 167.132 C 234.429 168.380,234.751 169.200,236.224 169.200 C 237.474 169.200,237.941 168.388,237.262 167.395 C 236.598 166.425,236.030 166.345,235.410 167.132 M348.938 200.650 C 348.672 201.008,348.051 201.975,347.557 202.800 C 344.996 207.079,345.216 207.440,350.341 207.354 C 354.764 207.280,354.878 207.097,352.804 203.408 C 350.755 199.761,349.998 199.222,348.938 200.650 M173.097 215.250 C 172.535 216.035,171.460 217.740,171.154 218.330 C 170.992 218.644,170.351 219.789,169.730 220.876 C 169.108 221.962,168.600 222.893,168.600 222.943 C 168.600 222.993,168.315 223.432,167.966 223.917 C 167.126 225.088,166.682 225.012,174.082 224.953 L 180.625 224.900 179.771 223.600 C 179.302 222.885,178.910 222.255,178.901 222.200 C 178.815 221.708,175.411 215.977,174.833 215.350 C 174.217 214.683,173.531 214.643,173.097 215.250 " stroke="none" fill="#e3b1b1" fill-rule="evenodd"></path><path id="path2" d="M0.000 64.900 C 0.000 100.595,0.033 129.800,0.072 129.800 C 0.234 129.800,2.836 125.744,4.114 123.500 C 4.865 122.180,7.143 118.220,9.176 114.700 C 14.385 105.679,17.030 101.075,17.737 99.800 C 18.381 98.637,22.439 91.669,24.143 88.800 C 25.315 86.825,27.909 82.299,29.757 79.000 C 30.466 77.735,31.441 76.090,31.923 75.344 C 32.405 74.598,32.800 73.917,32.800 73.831 C 32.800 73.745,33.064 73.422,33.387 73.112 C 34.459 72.085,35.086 72.643,37.193 76.500 C 37.554 77.160,38.141 78.150,38.498 78.700 C 38.855 79.250,39.345 80.091,39.587 80.569 C 39.829 81.047,40.366 81.992,40.780 82.669 C 41.895 84.492,46.125 91.829,47.256 93.900 C 47.796 94.890,48.824 96.690,49.540 97.900 C 50.256 99.110,51.208 100.730,51.657 101.500 C 53.027 103.853,53.977 104.420,54.879 103.423 C 55.232 103.033,60.488 94.080,62.231 90.900 C 64.825 86.168,65.395 86.071,67.536 90.000 C 68.735 92.201,72.781 99.150,73.993 101.092 C 74.677 102.187,75.555 103.715,75.943 104.486 C 76.332 105.257,77.033 106.521,77.502 107.294 C 77.970 108.067,78.555 109.060,78.801 109.500 C 80.354 112.276,82.766 116.451,83.307 117.300 C 83.658 117.850,84.377 119.065,84.905 120.000 C 85.433 120.935,86.543 122.870,87.371 124.300 C 88.200 125.730,89.073 127.260,89.312 127.700 C 89.552 128.140,90.659 130.064,91.774 131.975 C 92.888 133.887,93.800 135.483,93.800 135.522 C 93.800 135.560,94.101 136.066,94.470 136.646 C 94.838 137.226,96.472 140.040,98.100 142.900 C 99.728 145.760,101.309 148.418,101.613 148.807 C 101.917 149.195,102.832 150.815,103.648 152.407 C 104.464 153.998,106.029 156.785,107.126 158.600 C 108.223 160.415,109.514 162.620,109.995 163.500 C 110.476 164.380,111.874 166.810,113.102 168.900 C 114.330 170.990,115.968 173.825,116.742 175.200 C 118.897 179.028,120.275 181.419,120.835 182.300 C 121.880 183.945,123.969 187.549,124.589 188.779 C 125.196 189.980,128.268 195.273,131.135 200.057 C 133.489 203.983,133.778 204.990,132.670 205.411 C 132.363 205.528,107.331 205.600,67.015 205.600 C 31.177 205.600,1.438 205.657,0.928 205.727 L 0.000 205.854 0.000 215.427 L 0.000 225.000 76.874 225.000 L 153.748 225.000 154.181 224.350 C 154.621 223.688,155.575 222.036,161.247 212.100 C 164.812 205.855,165.991 203.824,167.751 200.900 C 168.413 199.800,170.307 196.515,171.959 193.600 C 175.213 187.858,178.920 181.401,179.422 180.600 C 180.240 179.297,183.367 173.910,185.343 170.400 C 187.850 165.946,189.283 163.464,194.463 154.600 C 195.010 153.665,196.826 150.515,198.500 147.600 C 200.173 144.685,203.163 139.507,205.144 136.094 C 210.297 127.218,210.253 127.316,209.504 126.446 L 209.035 125.900 166.667 125.800 C 143.365 125.745,124.188 125.627,124.050 125.538 C 123.297 125.051,123.984 123.508,127.915 116.858 C 130.693 112.158,130.777 112.013,131.542 110.600 C 131.870 109.995,132.976 108.060,134.001 106.300 C 135.026 104.540,136.195 102.515,136.598 101.800 C 137.001 101.085,138.142 99.105,139.133 97.400 C 143.257 90.304,144.584 88.002,145.587 86.200 C 146.169 85.155,146.936 83.850,147.291 83.300 C 147.647 82.750,148.255 81.715,148.643 81.000 C 149.447 79.520,150.931 76.945,152.907 73.600 C 153.655 72.335,154.690 70.529,155.208 69.586 C 155.726 68.643,156.373 67.518,156.645 67.086 C 156.917 66.654,158.109 64.590,159.293 62.500 C 160.478 60.410,161.786 58.115,162.200 57.400 C 162.615 56.685,163.475 55.200,164.113 54.100 C 164.750 53.000,165.828 51.155,166.508 50.000 C 167.188 48.845,168.308 46.910,168.998 45.700 C 169.688 44.490,170.678 42.780,171.198 41.900 C 171.719 41.020,172.669 39.355,173.310 38.200 C 173.951 37.045,175.417 34.525,176.567 32.600 C 177.718 30.675,179.081 28.335,179.596 27.400 C 180.464 25.825,183.486 20.560,184.992 18.000 C 186.533 15.379,187.113 15.379,188.538 18.000 C 188.867 18.605,189.885 20.360,190.800 21.900 C 191.714 23.440,193.179 25.960,194.055 27.500 C 194.931 29.040,196.118 31.110,196.693 32.100 C 199.040 36.142,200.701 38.979,201.527 40.355 C 202.007 41.156,202.400 41.855,202.400 41.909 C 202.400 41.964,202.630 42.372,202.911 42.817 C 203.464 43.693,203.472 43.707,205.553 47.400 C 208.672 52.933,208.928 53.067,210.917 50.202 C 211.476 49.397,212.149 48.325,212.412 47.819 C 212.675 47.314,213.259 46.270,213.710 45.500 C 216.247 41.170,216.796 40.226,217.204 39.500 C 217.451 39.060,218.081 37.935,218.605 37.000 C 219.129 36.065,220.165 34.265,220.908 33.000 C 224.013 27.710,225.600 24.954,225.600 24.852 C 225.600 24.792,225.946 24.193,226.368 23.522 C 226.791 22.850,227.362 21.895,227.637 21.400 C 228.422 19.988,232.210 13.362,233.831 10.566 C 237.242 4.681,237.082 4.680,240.502 10.600 C 243.957 16.579,244.996 18.359,246.540 20.941 C 247.343 22.284,248.000 23.430,248.000 23.487 C 248.000 23.545,248.315 24.085,248.700 24.687 C 249.085 25.288,249.400 25.819,249.400 25.865 C 249.400 25.911,250.176 27.288,251.125 28.925 C 252.073 30.561,253.522 33.115,254.345 34.600 C 255.168 36.085,256.195 37.865,256.627 38.555 C 257.059 39.245,257.581 40.100,257.787 40.455 C 259.041 42.611,262.322 48.310,265.298 53.500 C 267.190 56.800,269.396 60.625,270.200 62.000 C 272.279 65.556,272.600 66.199,272.600 66.809 C 272.600 67.961,274.161 67.892,245.690 68.000 C 220.234 68.097,219.429 68.111,219.021 68.481 C 218.290 69.143,218.686 70.447,220.485 73.300 C 220.831 73.850,221.825 75.560,222.692 77.100 C 223.559 78.640,224.613 80.460,225.034 81.145 C 225.455 81.830,225.800 82.439,225.800 82.499 C 225.800 82.560,226.326 83.484,226.969 84.554 C 227.612 85.624,229.202 88.345,230.502 90.600 C 231.802 92.855,233.285 95.420,233.799 96.300 C 234.312 97.180,235.301 98.890,235.996 100.100 C 236.690 101.310,238.026 103.605,238.964 105.200 C 240.708 108.165,243.000 112.202,243.000 112.308 C 243.000 112.340,243.420 113.072,243.933 113.933 C 244.446 114.795,245.150 115.995,245.498 116.600 C 245.846 117.205,246.895 119.005,247.831 120.600 C 250.077 124.431,250.297 125.108,249.435 125.535 C 249.251 125.626,241.626 125.745,232.491 125.800 C 213.984 125.911,214.800 125.846,214.800 127.215 C 214.800 127.961,214.918 128.192,217.695 132.900 C 218.928 134.990,220.416 137.555,221.001 138.600 C 221.587 139.645,222.456 141.151,222.933 141.947 C 223.410 142.742,223.800 143.430,223.800 143.475 C 223.800 143.547,230.296 154.776,233.630 160.468 C 235.932 164.397,236.830 164.522,238.597 161.157 C 238.959 160.466,239.819 158.955,240.507 157.800 C 241.737 155.736,243.702 152.328,247.657 145.400 C 248.755 143.475,250.572 140.325,251.693 138.400 C 252.813 136.475,253.956 134.495,254.232 134.000 C 255.184 132.291,255.648 131.498,255.988 131.000 C 256.176 130.725,257.210 128.946,258.285 127.046 C 261.009 122.236,261.205 122.200,263.428 126.100 C 264.181 127.420,265.256 129.265,265.817 130.200 C 267.374 132.795,270.335 137.866,271.597 140.100 C 272.218 141.200,273.437 143.315,274.304 144.800 C 275.172 146.285,276.442 148.490,277.126 149.700 C 279.059 153.118,279.450 153.676,280.064 153.890 C 281.216 154.292,281.234 154.268,285.448 146.900 C 286.328 145.360,287.472 143.380,287.990 142.500 C 291.010 137.370,293.800 132.530,295.226 129.945 C 295.758 128.980,296.512 127.694,296.900 127.087 C 300.478 121.493,300.229 120.800,294.631 120.800 C 289.960 120.800,289.807 120.577,291.931 116.841 C 292.662 115.554,293.486 114.095,293.761 113.600 C 294.036 113.105,294.913 111.575,295.709 110.200 C 296.504 108.825,297.356 107.340,297.600 106.900 C 297.845 106.460,298.876 104.705,299.893 103.000 C 301.476 100.345,304.457 95.159,309.249 86.723 C 309.881 85.610,310.484 84.565,310.589 84.400 C 310.694 84.235,311.289 83.215,311.911 82.133 C 314.403 77.798,314.647 77.806,317.280 82.307 C 320.166 87.242,319.745 87.525,326.248 76.300 C 328.870 71.775,328.976 71.791,332.175 77.164 C 333.179 78.849,334.000 80.273,334.000 80.329 C 334.000 80.384,334.810 81.826,335.800 83.533 C 336.790 85.239,337.600 86.671,337.600 86.714 C 337.600 86.758,337.945 87.357,338.366 88.046 C 338.788 88.736,339.360 89.705,339.637 90.200 C 341.232 93.046,343.642 97.211,344.903 99.300 C 346.421 101.816,346.500 101.953,348.196 105.000 C 348.777 106.045,349.503 107.305,349.808 107.800 C 350.114 108.295,350.538 109.015,350.752 109.400 C 352.278 112.151,354.540 116.065,355.087 116.900 C 355.447 117.450,356.262 118.800,356.896 119.900 C 359.314 124.088,359.303 124.097,365.798 112.600 C 366.824 110.785,368.290 108.220,369.057 106.900 C 369.824 105.580,370.920 103.690,371.493 102.700 C 377.115 92.979,377.101 92.990,379.006 96.500 C 379.364 97.160,380.263 98.735,381.004 100.000 C 381.745 101.265,383.230 103.830,384.305 105.700 C 387.384 111.058,388.368 112.751,389.710 115.000 C 390.398 116.155,391.254 117.640,391.611 118.300 C 392.637 120.198,393.029 120.884,395.178 124.540 C 396.290 126.432,397.200 128.030,397.200 128.092 C 397.200 128.185,399.691 131.925,399.924 132.183 C 399.966 132.229,400.000 102.507,400.000 66.133 L 400.000 0.000 200.000 0.000 L 0.000 0.000 0.000 64.900 M38.277 7.618 C 39.360 8.469,39.783 10.181,39.013 10.593 C 38.303 10.973,36.448 10.848,35.990 10.390 C 35.258 9.658,36.449 7.343,37.623 7.214 C 37.691 7.206,37.985 7.388,38.277 7.618 M305.393 10.643 C 305.782 11.162,306.382 12.107,306.726 12.743 C 307.635 14.424,309.538 17.758,311.094 20.400 C 311.839 21.665,312.722 23.195,313.055 23.800 C 313.389 24.405,314.087 25.620,314.606 26.500 C 318.089 32.405,318.815 33.650,319.503 34.900 C 320.802 37.262,322.382 40.008,323.587 42.000 C 324.219 43.045,325.261 44.845,325.901 46.000 C 326.541 47.155,327.740 49.225,328.565 50.600 C 333.329 58.542,334.058 60.209,333.000 60.742 C 332.012 61.240,275.502 61.102,275.000 60.600 C 274.362 59.962,274.672 59.234,277.947 53.700 C 281.290 48.050,281.710 47.323,282.397 46.000 C 282.769 45.285,283.357 44.250,283.705 43.700 C 284.053 43.150,284.725 41.980,285.199 41.100 C 285.673 40.220,287.023 37.880,288.201 35.900 C 289.378 33.920,290.906 31.310,291.596 30.100 C 292.286 28.890,293.258 27.225,293.756 26.400 C 294.254 25.575,295.266 23.820,296.004 22.500 C 303.639 8.850,303.849 8.585,305.393 10.643 M116.146 116.050 C 116.698 116.647,119.407 121.311,119.718 122.199 C 120.240 123.692,119.462 124.000,115.164 124.000 C 110.065 124.000,109.747 123.638,111.773 120.142 C 114.493 115.446,115.080 114.897,116.146 116.050 M0.850 140.543 L 0.000 140.623 -0.000 169.357 L -0.000 198.091 0.718 196.995 C 1.113 196.393,1.555 195.765,1.699 195.600 C 1.843 195.435,3.420 192.780,5.203 189.700 C 6.986 186.620,8.787 183.515,9.206 182.800 C 9.625 182.085,10.177 181.130,10.434 180.678 C 12.781 176.541,15.128 172.475,16.368 170.400 C 17.971 167.719,22.619 159.675,23.707 157.700 C 24.302 156.622,25.025 155.356,28.329 149.612 C 28.863 148.683,29.885 146.928,30.601 145.712 C 32.670 142.194,32.849 141.504,31.859 140.855 C 31.346 140.518,4.046 140.244,0.850 140.543 M108.361 143.298 C 108.940 143.785,111.200 147.932,111.200 148.508 C 111.200 149.395,110.532 149.600,107.650 149.597 C 103.355 149.592,103.145 149.274,105.123 145.770 C 106.862 142.690,107.269 142.379,108.361 143.298 M241.024 169.600 C 239.608 169.935,239.696 170.936,241.406 173.916 C 242.096 175.117,243.010 176.730,243.439 177.500 C 245.541 181.277,246.507 181.785,247.722 179.753 C 252.822 171.226,253.230 170.182,251.689 169.596 C 251.079 169.364,242.010 169.368,241.024 169.600 M392.215 178.718 C 391.287 179.499,391.358 179.820,393.092 182.700 C 394.818 185.568,396.175 187.941,396.878 189.326 C 397.277 190.110,398.029 191.341,398.551 192.062 C 399.073 192.783,399.607 193.537,399.738 193.737 C 399.925 194.021,399.979 192.402,399.988 186.275 L 400.000 178.450 399.375 178.325 C 397.432 177.936,392.845 178.188,392.215 178.718 M324.843 207.399 C 306.300 207.510,307.487 207.418,307.677 208.728 C 307.763 209.324,308.061 209.892,310.498 214.100 C 314.344 220.740,315.604 223.026,315.928 223.952 L 316.295 225.004 325.576 224.952 C 334.532 224.902,334.864 224.886,335.078 224.511 C 335.200 224.297,335.371 224.027,335.459 223.911 C 335.546 223.795,336.321 222.440,337.182 220.900 C 338.767 218.063,340.821 214.495,342.651 211.400 C 344.216 208.754,344.142 207.565,342.400 207.374 C 342.015 207.332,334.114 207.343,324.843 207.399 M377.181 207.400 C 360.362 207.483,356.804 207.547,356.531 207.774 C 355.840 208.348,356.252 209.631,358.158 212.841 C 359.217 214.625,360.665 217.108,362.507 220.300 C 363.142 221.400,364.018 222.907,364.454 223.650 L 365.246 225.000 382.623 225.000 L 400.000 225.000 400.000 216.200 L 400.000 207.400 399.250 207.377 C 398.838 207.365,398.275 207.342,398.000 207.327 C 397.725 207.312,388.356 207.345,377.181 207.400 " stroke="none" fill="#fbfbfb" fill-rule="evenodd"></path></g></svg>