<?xml version="1.0" encoding="UTF-8" standalone="no"?>
<svg
   id="visual"
   version="1.1"
   viewBox="0 0 900 301"
   sodipodi:docname="layered-peaks-haikei-cropped.svg"
   inkscape:version="1.3.1 (91b66b0783, 2023-11-16)"
   xmlns:inkscape="http://www.inkscape.org/namespaces/inkscape"
   xmlns:sodipodi="http://sodipodi.sourceforge.net/DTD/sodipodi-0.dtd"
   xmlns="http://www.w3.org/2000/svg"
   xmlns:svg="http://www.w3.org/2000/svg">
  <defs
     id="defs5" />
  <sodipodi:namedview
     id="namedview5"
     pagecolor="#ffffff"
     bordercolor="#000000"
     borderopacity="0.25"
     inkscape:showpageshadow="2"
     inkscape:pageopacity="0.0"
     inkscape:pagecheckerboard="0"
     inkscape:deskcolor="#d1d1d1"
     inkscape:zoom="0.78111111"
     inkscape:cx="450"
     inkscape:cy="150.42674"
     inkscape:window-width="1280"
     inkscape:window-height="961"
     inkscape:window-x="1272"
     inkscape:window-y="-8"
     inkscape:window-maximized="1"
     inkscape:current-layer="visual" />
  <path
     d="m 1.0682788,46.667092 128.9999912,50.44895 128.00001,-17.547464 129,43.868652 128,-72.383274 129,-8.773729 127.99999,43.86865 129,10.967165 V 301.10527 h -129 -127.99999 -129 -128 -129 H 130.06827 1.0682788 Z"
     fill="#c62368"
     id="path1"
     style="stroke-width:1.48102" />
  <path
     d="m 1.0682788,165.11244 128.9999912,-61.4161 128.00001,39.48177 129,-4.38685 128,-43.86865 129,65.80296 127.99999,-32.90148 129,-15.35402 v 188.6352 h -129 -127.99999 -129 -128 -129 H 130.06827 1.0682788 Z"
     fill="#8b2970"
     id="path2"
     style="stroke-width:1.48102" />
  <path
     d="m 1.0682788,138.79126 128.9999912,19.7409 128.00001,21.93433 129,-54.83583 128,50.44895 129,15.35403 127.99999,-37.28836 129,-19.74089 v 166.70088 h -129 -127.99999 -129 -128 -129 H 130.06827 1.0682788 Z"
     fill="#4f2b64"
     id="path3"
     style="stroke-width:1.48102" />
  <path
     d="m 1.0682788,235.30229 128.9999912,-39.48178 128.00001,-24.12775 129,57.02923 128,2.19344 129,-13.16061 127.99999,-35.09491 129,39.48179 v 78.96357 h -129 -127.99999 -129 -128 -129 H 130.06827 1.0682788 Z"
     fill="#1c2247"
     id="path4"
     style="stroke-width:1.48102" />
  <path
     d="m 1.0682788,233.10887 128.9999912,-8.77373 128.00001,35.09491 129,-41.67523 128,8.77373 129,37.28837 127.99999,-19.7409 129,-24.12775 v 81.157 h -129 -127.99999 -129 -128 -129 H 130.06827 1.0682788 Z"
     fill="#001122"
     id="path5"
     style="stroke-width:1.48102" />
</svg>
