<svg id="visual" viewBox="0 0 960 200" width="960" height="200" xmlns="http://www.w3.org/2000/svg" xmlns:xlink="http://www.w3.org/1999/xlink" version="1.1"><path d="M0 56L137 85L274 45L411 105L549 32L686 75L823 60L960 34L960 201L823 201L686 201L549 201L411 201L274 201L137 201L0 201Z" fill="#733333"></path><path d="M0 95L137 113L274 106L411 93L549 81L686 104L823 119L960 102L960 201L823 201L686 201L549 201L411 201L274 201L137 201L0 201Z" fill="#5b2e45"></path><path d="M0 118L137 134L274 90L411 132L549 144L686 98L823 137L960 128L960 201L823 201L686 201L549 201L411 201L274 201L137 201L0 201Z" fill="#392e47"></path><path d="M0 134L137 139L274 157L411 164L549 118L686 137L823 147L960 134L960 201L823 201L686 201L549 201L411 201L274 201L137 201L0 201Z" fill="#1f2a38"></path><path d="M0 166L137 168L274 184L411 147L549 179L686 171L823 165L960 147L960 201L823 201L686 201L549 201L411 201L274 201L137 201L0 201Z" fill="#192124"></path></svg>