<svg id="visual" viewBox="0 0 900 2000" width="900" height="2000" xmlns="http://www.w3.org/2000/svg" xmlns:xlink="http://www.w3.org/1999/xlink" version="1.1"><rect width="900" height="2000" fill="#001120"></rect><g><g transform="translate(434 1218)"><path d="M0 -104.2L90.3 -52.1L90.3 52.1L0 104.2L-90.3 52.1L-90.3 -52.1Z" fill="none" stroke="#297EA6" stroke-width="2"></path></g><g transform="translate(437 775)"><path d="M0 -26L22.5 -13L22.5 13L0 26L-22.5 13L-22.5 -13Z" fill="none" stroke="#297EA6" stroke-width="2"></path></g><g transform="translate(651 1886)"><path d="M0 -34L29.4 -17L29.4 17L0 34L-29.4 17L-29.4 -17Z" fill="none" stroke="#297EA6" stroke-width="2"></path></g><g transform="translate(242 574)"><path d="M0 -58L50.2 -29L50.2 29L0 58L-50.2 29L-50.2 -29Z" fill="none" stroke="#297EA6" stroke-width="2"></path></g><g transform="translate(173 837)"><path d="M0 -100L86.6 -50L86.6 50L0 100L-86.6 50L-86.6 -50Z" fill="none" stroke="#297EA6" stroke-width="2"></path></g><g transform="translate(789 1370)"><path d="M0 -36L31.2 -18L31.2 18L0 36L-31.2 18L-31.2 -18Z" fill="none" stroke="#297EA6" stroke-width="2"></path></g><g transform="translate(450 1582)"><path d="M0 -94L81.4 -47L81.4 47L0 94L-81.4 47L-81.4 -47Z" fill="none" stroke="#297EA6" stroke-width="2"></path></g><g transform="translate(128 302)"><path d="M0 -37L32 -18.5L32 18.5L0 37L-32 18.5L-32 -18.5Z" fill="none" stroke="#297EA6" stroke-width="2"></path></g><g transform="translate(243 1457)"><path d="M0 -65L56.3 -32.5L56.3 32.5L0 65L-56.3 32.5L-56.3 -32.5Z" fill="none" stroke="#297EA6" stroke-width="2"></path></g><g transform="translate(767 239)"><path d="M0 -53L45.9 -26.5L45.9 26.5L0 53L-45.9 26.5L-45.9 -26.5Z" fill="none" stroke="#297EA6" stroke-width="2"></path></g><g transform="translate(668 1015)"><path d="M0 -19L16.5 -9.5L16.5 9.5L0 19L-16.5 9.5L-16.5 -9.5Z" fill="none" stroke="#297EA6" stroke-width="2"></path></g><g transform="translate(200 1744)"><path d="M0 -30L26 -15L26 15L0 30L-26 15L-26 -15Z" fill="none" stroke="#297EA6" stroke-width="2"></path></g><g transform="translate(106 1105)"><path d="M0 -103L89.2 -51.5L89.2 51.5L0 103L-89.2 51.5L-89.2 -51.5Z" fill="none" stroke="#297EA6" stroke-width="2"></path></g><g transform="translate(668 695)"><path d="M0 -69L59.8 -34.5L59.8 34.5L0 69L-59.8 34.5L-59.8 -34.5Z" fill="none" stroke="#297EA6" stroke-width="2"></path></g><g transform="translate(775 1597)"><path d="M0 -89L77.1 -44.5L77.1 44.5L0 89L-77.1 44.5L-77.1 -44.5Z" fill="none" stroke="#297EA6" stroke-width="2"></path></g><g transform="translate(760 450)"><path d="M0 -50L43.3 -25L43.3 25L0 50L-43.3 25L-43.3 -25Z" fill="none" stroke="#297EA6" stroke-width="2"></path></g><g transform="translate(397 136)"><path d="M0 -92L79.7 -46L79.7 46L0 92L-79.7 46L-79.7 -46Z" fill="none" stroke="#297EA6" stroke-width="2"></path></g><g transform="translate(438 382)"><path d="M0 -97L84 -48.5L84 48.5L0 97L-84 48.5L-84 -48.5Z" fill="none" stroke="#297EA6" stroke-width="2"></path></g></g></svg>