<svg id="visual" viewBox="0 0 960 200" width="960" height="200" xmlns="http://www.w3.org/2000/svg" xmlns:xlink="http://www.w3.org/1999/xlink" version="1.1">
<path d="M0 13L87 13L87 29L175 29L175 31L262 31L262 19L349 19L349 35L436 35L436 25L524 25L524 15L611 15L611 21L698 21L698 19L785 19L785 23L873 23L873 15L960 15L960 25L960 0L960 0L873 0L873 0L785 0L785 0L698 0L698 0L611 0L611 0L524 0L524 0L436 0L436 0L349 0L349 0L262 0L262 0L175 0L175 0L87 0L87 0L0 0Z" fill="#192124"></path>
<path d="M0 67L87 67L87 109L175 109L175 89L262 89L262 95L349 95L349 85L436 85L436 73L524 73L524 121L611 121L611 91L698 91L698 51L785 51L785 91L873 91L873 49L960 49L960 97L960 23L960 13L873 13L873 21L785 21L785 17L698 17L698 19L611 19L611 13L524 13L524 23L436 23L436 33L349 33L349 17L262 17L262 29L175 29L175 27L87 27L87 11L0 11Z" 
fill="#5b2e45"></path>
<path d="M0 109L87 109L87 143L175 143L175 165L262 165L262 145L349 145L349 127L436 127L436 151L524 151L524 157L611 157L611 119L698 119L698 133L785 133L785 155L873 155L873 143L960 143L960 131L960 95L960 47L873 47L873 89L785 89L785 49L698 49L698 89L611 89L611 119L524 119L524 71L436 71L436 83L349 83L349 93L262 93L262 87L175 87L175 107L87 107L87 65L0 65Z" fill="#a17272"></path>
<path d="M0 151L87 151L87 179L175 179L175 183L262 183L262 163L349 163L349 157L436 157L436 173L524 173L524 171L611 171L611 149L698 149L698 165L785 165L785 173L873 173L873 163L960 163L960 157L960 129L960 141L873 141L873 153L785 153L785 131L698 131L698 117L611 117L611 155L524 155L524 149L436 149L436 125L349 125L349 143L262 143L262 163L175 163L175 141L87 141L87 107L0 107Z" fill="#ddc9c7"></path>
<path d="M0 201L87 201L87 201L175 201L175 201L262 201L262 201L349 201L349 201L436 201L436 201L524 201L524 201L611 201L611 201L698 201L698 201L785 201L785 201L873 201L873 201L960 201L960 201L960 155L960 161L873 161L873 171L785 171L785 163L698 163L698 147L611 147L611 169L524 169L524 171L436 171L436 155L349 155L349 161L262 161L262 181L175 181L175 177L87 177L87 149L0 149Z" fill="#ffffff"></path>
</svg>
