<svg id="visual" viewBox="0 0 900 200" width="900" height="200" xmlns="http://www.w3.org/2000/svg" xmlns:xlink="http://www.w3.org/1999/xlink" version="1.1"><path d="M0 33L82 25L164 33L245 25L327 31L409 23L491 31L573 19L655 33L736 35L818 21L900 13L900 0L818 0L736 0L655 0L573 0L491 0L409 0L327 0L245 0L164 0L82 0L0 0Z" fill="#001120"></path><path d="M0 61L82 77L164 87L245 63L327 113L409 87L491 57L573 53L655 91L736 91L818 107L900 37L900 11L818 19L736 33L655 31L573 17L491 29L409 21L327 29L245 23L164 31L82 23L0 31Z" fill="#042b3c"></path><path d="M0 129L82 147L164 131L245 125L327 143L409 133L491 117L573 157L655 125L736 145L818 147L900 115L900 35L818 105L736 89L655 89L573 51L491 55L409 85L327 111L245 61L164 85L82 75L0 59Z" fill="#004757"></path><path d="M0 183L82 173L164 173L245 171L327 177L409 183L491 165L573 181L655 161L736 173L818 185L900 167L900 113L818 145L736 143L655 123L573 155L491 115L409 131L327 141L245 123L164 129L82 145L0 127Z" fill="#00656b"></path><path d="M0 201L82 201L164 201L245 201L327 201L409 201L491 201L573 201L655 201L736 201L818 201L900 201L900 165L818 183L736 171L655 159L573 179L491 163L409 181L327 175L245 169L164 171L82 171L0 181Z" fill="#038373"></path></svg>