<svg xmlns="http://www.w3.org/2000/svg" xmlns:xlink="http://www.w3.org/1999/xlink" id="visual" version="1.1" viewBox="0 0 900 301"><rect x="0" y="0" width="900" height="300" fill="#FFFFFF"/><path d="M0 185L129 208L257 200L386 220L514 187L643 183L771 203L900 208L900 301L771 301L643 301L514 301L386 301L257 301L129 301L0 301Z" fill="#c62368"/><path d="M0 239L129 211L257 229L386 227L514 207L643 237L771 222L900 215L900 301L771 301L643 301L514 301L386 301L257 301L129 301L0 301Z" fill="#8b2970"/><path d="M0 227L129 236L257 246L386 221L514 244L643 251L771 234L900 225L900 301L771 301L643 301L514 301L386 301L257 301L129 301L0 301Z" fill="#4f2b64"/><path d="M0 271L129 253L257 242L386 268L514 269L643 263L771 247L900 265L900 301L771 301L643 301L514 301L386 301L257 301L129 301L0 301Z" fill="#1c2247"/><path d="M0 270L129 266L257 282L386 263L514 267L643 284L771 275L900 264L900 301L771 301L643 301L514 301L386 301L257 301L129 301L0 301Z" fill="#001122"/></svg>