<svg id="visual" viewBox="0 0 960 200" width="960" height="200" xmlns="http://www.w3.org/2000/svg" xmlns:xlink="http://www.w3.org/1999/xlink" version="1.1"><rect x="0" y="0" width="960" height="200" fill="#FFFFFF"></rect><path d="M0 55L22.8 60.2C45.7 65.3 91.3 75.7 137 83.2C182.7 90.7 228.3 95.3 274 93.2C319.7 91 365.3 82 411.2 82.2C457 82.3 503 91.7 548.8 97C594.7 102.3 640.3 103.7 686 102.2C731.7 100.7 777.3 96.3 823 88.8C868.7 81.3 914.3 70.7 937.2 65.3L960 60L960 201L937.2 201C914.3 201 868.7 201 823 201C777.3 201 731.7 201 686 201C640.3 201 594.7 201 548.8 201C503 201 457 201 411.2 201C365.3 201 319.7 201 274 201C228.3 201 182.7 201 137 201C91.3 201 45.7 201 22.8 201L0 201Z" fill="#fa7268"></path><path d="M0 103L22.8 100.2C45.7 97.3 91.3 91.7 137 96.7C182.7 101.7 228.3 117.3 274 119.8C319.7 122.3 365.3 111.7 411.2 110.3C457 109 503 117 548.8 116.5C594.7 116 640.3 107 686 106C731.7 105 777.3 112 823 117.3C868.7 122.7 914.3 126.3 937.2 128.2L960 130L960 201L937.2 201C914.3 201 868.7 201 823 201C777.3 201 731.7 201 686 201C640.3 201 594.7 201 548.8 201C503 201 457 201 411.2 201C365.3 201 319.7 201 274 201C228.3 201 182.7 201 137 201C91.3 201 45.7 201 22.8 201L0 201Z" fill="#cb5c57"></path><path d="M0 143L22.8 138.5C45.7 134 91.3 125 137 124.5C182.7 124 228.3 132 274 134C319.7 136 365.3 132 411.2 128C457 124 503 120 548.8 123.8C594.7 127.7 640.3 139.3 686 143.3C731.7 147.3 777.3 143.7 823 141.5C868.7 139.3 914.3 138.7 937.2 138.3L960 138L960 201L937.2 201C914.3 201 868.7 201 823 201C777.3 201 731.7 201 686 201C640.3 201 594.7 201 548.8 201C503 201 457 201 411.2 201C365.3 201 319.7 201 274 201C228.3 201 182.7 201 137 201C91.3 201 45.7 201 22.8 201L0 201Z" fill="#9d4745"></path><path d="M0 155L22.8 155.5C45.7 156 91.3 157 137 160.2C182.7 163.3 228.3 168.7 274 169.7C319.7 170.7 365.3 167.3 411.2 164C457 160.7 503 157.3 548.8 155C594.7 152.7 640.3 151.3 686 150C731.7 148.7 777.3 147.3 823 150.3C868.7 153.3 914.3 160.7 937.2 164.3L960 168L960 201L937.2 201C914.3 201 868.7 201 823 201C777.3 201 731.7 201 686 201C640.3 201 594.7 201 548.8 201C503 201 457 201 411.2 201C365.3 201 319.7 201 274 201C228.3 201 182.7 201 137 201C91.3 201 45.7 201 22.8 201L0 201Z" fill="#723333"></path></svg>